<?xml version="1.0" encoding="utf-8"?>
<!-- Generator: Adobe Illustrator 23.0.4, SVG Export Plug-In . SVG Version: 6.00 Build 0)  -->
<svg version="1.1" id="image" xmlns:v="http://vecta.io"
	 xmlns="http://www.w3.org/2000/svg" xmlns:xlink="http://www.w3.org/1999/xlink" x="0px" y="0px" viewBox="0 0 100 100"
	 style="enable-background:new 0 0 100 100;" xml:space="preserve">
<style type="text/css">
	.st0{fill-rule:evenodd;clip-rule:evenodd;fill:url(#SVGID_1_);}
	.st1{fill-rule:evenodd;clip-rule:evenodd;fill:url(#SVGID_2_);}
	.st2{fill-rule:evenodd;clip-rule:evenodd;fill:#FFFFFF;}
</style>
<symbol  id="pow5XxgW0EZSO6XGCJ_hjo.sym" viewBox="-31.9 -31.3 63.9 62.6">
	<g id="juhnopeg27d_1_" transform="translate(0 0)">
		<g>
			<g id="juhnopeb277_1_" transform="translate(-3.552713678800501e-15 1.7763568394002505e-14)">
				
					<linearGradient id="SVGID_1_" gradientUnits="userSpaceOnUse" x1="7079.4424" y1="-8543.4355" x2="7078.4424" y2="-8543.4463" gradientTransform="matrix(47.3044 0 0 46.2661 -334873.5625 395263.1875)">
					<stop  offset="0" style="stop-color:#366A96"/>
					<stop  offset="1" style="stop-color:#3679B0"/>
				</linearGradient>
				<path class="st0" d="M-15.5-22.9c0-4.3,1.2-6.7,7.7-7.8c4.4-0.8,10.1-0.9,15.4,0c4.2,0.7,7.7,3.7,7.7,7.8v14.2
					c0,4.2-3.4,7.6-7.7,7.6H-7.7c-5.2,0-9.6,4.4-9.6,9.3V15h-5.3c-4.5,0-7.1-3.2-8.2-7.6c-1.5-5.9-1.4-9.5,0-15.2
					c1.2-5,5.1-7.6,9.6-7.6H0v-1.9h-15.4L-15.5-22.9L-15.5-22.9z"/>
			</g>
			<g id="juhnopec278_1_" transform="translate(16.49408874933566 15.953760699959663)">
				
					<linearGradient id="SVGID_2_" gradientUnits="userSpaceOnUse" x1="7063.2593" y1="-8560.7812" x2="7061.2793" y2="-8560.7812" gradientTransform="matrix(47.4004 0 0 46.6095 -334785.7812 399005.7188)">
					<stop  offset="0" style="stop-color:#FFC836"/>
					<stop  offset="1" style="stop-color:#FFE873"/>
				</linearGradient>
				<path class="st1" d="M-1.1,6.6c0,4.3-3.8,6.5-7.7,7.6c-5.8,1.6-10.5,1.4-15.4,0c-4.1-1.2-7.7-3.5-7.7-7.6V-7.6
					c0-4.1,3.5-7.6,7.7-7.6h15.4c5.1,0,9.6-4.3,9.6-9.5v-6.6h5.8c4.5,0,6.6,3.3,7.7,7.6c1.5,6,1.6,10.5,0,15.2C12.7-4,11-1,6.6-1
					h-23.1v1.9h15.4V6.6L-1.1,6.6z"/>
			</g>
			<g id="juhnoped279_1_" transform="translate(20.345803837226285 4.583048419686225)">
				<path class="st2" d="M-31.9-28.4c0-1.6,1.3-2.8,2.9-2.8c1.6,0,2.9,1.3,2.9,2.8c0,1.6-1.3,2.8-2.9,2.8
					C-30.7-25.6-31.9-26.9-31.9-28.4z M-14.6,18.9c0-1.6,1.3-2.8,2.9-2.8c1.6,0,2.9,1.3,2.9,2.8c0,1.6-1.3,2.8-2.9,2.8
					C-13.3,21.8-14.6,20.5-14.6,18.9z"/>
			</g>
		</g>
	</g>
</symbol>
<use xlink:href="#pow5XxgW0EZSO6XGCJ_hjo.sym"  width="63.9" height="62.6" x="-31.9" y="-31.3" transform="matrix(1.1636 0 0 1.1636 50 50)" style="overflow:visible;"/>
</svg>
